<?xml version="1.0" standalone="no"?>
<!DOCTYPE svg PUBLIC "-//W3C//DTD SVG 20010904//EN"
 "http://www.w3.org/TR/2001/REC-SVG-20010904/DTD/svg10.dtd">
<svg version="1.0" xmlns="http://www.w3.org/2000/svg"
 width="64.000000pt" height="64.000000pt" viewBox="0 0 64.000000 64.000000"
 preserveAspectRatio="xMidYMid meet">

<g transform="translate(0.000000,64.000000) scale(0.100000,-0.100000)"
fill="#0045FF" stroke="none">
<path d="M335 596 c-8 -13 -13 -31 -9 -40 5 -13 0 -16 -26 -16 -25 0 -44 -12
-90 -56 -33 -31 -62 -65 -65 -75 -4 -11 -15 -19 -26 -19 -13 0 -19 -7 -19 -23
0 -28 17 -47 42 -47 10 0 18 -7 18 -15 0 -10 -10 -15 -27 -15 -38 0 -89 -33
-114 -72 -25 -41 -21 -103 10 -147 l22 -31 -25 0 c-14 0 -26 -4 -26 -10 0 -6
37 -10 92 -10 83 0 94 2 125 26 19 14 38 37 43 50 8 21 16 24 58 24 45 0 50
-2 75 -40 l26 -40 -39 0 c-21 0 -42 -5 -45 -10 -4 -6 32 -10 100 -10 116 0
150 10 179 55 27 41 7 51 -25 12 -51 -62 -138 -58 -179 7 -26 43 -25 75 3 117
32 48 49 44 66 -18 16 -61 37 -72 27 -16 -3 21 -9 48 -12 61 -6 19 -3 22 26
22 24 0 40 -9 66 -37 37 -40 57 -39 30 2 -22 34 -60 57 -104 64 -50 8 -55 40
-10 61 18 8 34 22 36 31 4 23 -25 49 -55 49 -14 0 -42 16 -68 37 l-43 38 29
17 c31 19 40 63 17 86 -21 21 -66 14 -83 -12z m64 -10 c17 -20 2 -48 -23 -44
-24 3 -34 37 -14 49 18 12 24 11 37 -5z m-22 -118 c32 -28 60 -58 61 -66 4
-17 -1 -14 -71 36 l-48 35 -37 -35 c-20 -20 -44 -34 -52 -31 -8 3 -21 7 -29 9
-19 6 76 104 101 104 10 0 44 -23 75 -52z m63 -120 c0 -4 -28 -8 -62 -8 -50 0
-66 4 -85 22 l-23 22 26 27 27 28 58 -42 c33 -22 59 -45 59 -49z m-220 37 c55
-16 93 -70 104 -148 7 -43 6 -48 -10 -45 -12 2 -23 21 -34 55 -13 44 -23 57
-65 85 -50 33 -75 75 -38 65 10 -3 29 -9 43 -12z m290 0 c0 -8 -9 -15 -20 -15
-11 0 -20 7 -20 15 0 8 9 15 20 15 11 0 20 -7 20 -15z m-360 -36 c0 -6 -4 -7
-10 -4 -5 3 -10 11 -10 16 0 6 5 7 10 4 6 -3 10 -11 10 -16z m240 -64 c-37
-39 -50 -37 -50 6 0 27 2 29 42 29 l42 0 -34 -35z m-163 7 c12 -9 25 -30 29
-45 l7 -29 -25 24 c-13 14 -32 29 -42 35 -10 6 -16 15 -12 22 10 15 17 14 43
-7z m197 -27 c-17 -13 -37 -38 -44 -56 -12 -27 -14 -29 -23 -13 -8 15 -2 26
38 61 27 23 51 40 54 37 3 -3 -8 -16 -25 -29z m-278 -22 c-4 -9 -10 -36 -13
-60 l-6 -42 61 -3 61 -3 -16 -34 c-50 -101 -203 -60 -203 55 0 34 6 48 31 73
35 35 97 45 85 14z m71 -15 c11 -13 23 -31 26 -40 5 -15 0 -18 -38 -18 -48 0
-52 7 -39 58 8 28 25 28 51 0z m127 -64 c26 -10 18 -24 -14 -24 -20 0 -30 5
-30 15 0 16 17 19 44 9z"/>
<path d="M620 150 c0 -5 5 -10 10 -10 6 0 10 5 10 10 0 6 -4 10 -10 10 -5 0
-10 -4 -10 -10z"/>
<path d="M285 30 c-3 -5 1 -10 10 -10 9 0 13 5 10 10 -3 6 -8 10 -10 10 -2 0
-7 -4 -10 -10z"/>
</g>
</svg>
