<?xml version="1.0" standalone="no"?>
<!DOCTYPE svg PUBLIC "-//W3C//DTD SVG 20010904//EN"
 "http://www.w3.org/TR/2001/REC-SVG-20010904/DTD/svg10.dtd">
<svg version="1.0" xmlns="http://www.w3.org/2000/svg"
 width="64.000000pt" height="64.000000pt" viewBox="0 0 64.000000 64.000000"
 preserveAspectRatio="xMidYMid meet">

<g transform="translate(0.000000,64.000000) scale(0.100000,-0.100000)"
fill="#0045FF" stroke="none">
<path d="M290 611 c0 -26 -27 -77 -110 -211 -60 -97 -113 -185 -116 -195 -7
-17 -1 -18 109 -12 96 6 117 5 117 -7 0 -14 -16 -16 -203 -32 -42 -3 -80 -10
-83 -15 -12 -20 36 -95 75 -117 36 -20 52 -22 223 -22 176 0 187 1 219 23 31
20 119 139 119 161 0 9 -232 1 -297 -11 -26 -4 -33 -2 -33 11 0 9 6 16 13 16
62 3 208 18 213 22 6 7 -201 374 -227 403 -19 19 -19 19 -19 -14z m129 -219
c46 -79 81 -146 78 -148 -3 -3 -46 -8 -96 -11 l-91 -6 0 174 c0 147 2 170 13
154 8 -11 51 -84 96 -163z m-136 -163 c-8 -7 -183 -17 -183 -11 0 2 42 71 93
154 l92 151 3 -143 c1 -79 -1 -147 -5 -151z m317 -69 c0 -5 -22 -12 -50 -16
-57 -8 -67 -24 -15 -24 42 0 43 -6 8 -48 -37 -43 -76 -51 -248 -52 -149 0
-202 9 -229 39 -16 18 -14 19 41 24 32 4 104 10 161 13 91 6 124 15 109 30 -2
3 -60 0 -128 -5 -193 -16 -212 -16 -216 -5 -3 9 274 35 545 53 12 0 22 -3 22
-9z"/>
<path d="M420 120 c0 -5 4 -10 9 -10 6 0 13 5 16 10 3 6 -1 10 -9 10 -9 0 -16
-4 -16 -10z"/>
</g>
</svg>
