<?xml version="1.0" standalone="no"?>
<!DOCTYPE svg PUBLIC "-//W3C//DTD SVG 20010904//EN"
 "http://www.w3.org/TR/2001/REC-SVG-20010904/DTD/svg10.dtd">
<svg version="1.0" xmlns="http://www.w3.org/2000/svg"
 width="64.000000pt" height="64.000000pt" viewBox="0 0 64.000000 64.000000"
 preserveAspectRatio="xMidYMid meet">

<g transform="translate(0.000000,64.000000) scale(0.100000,-0.100000)"
fill="#0045FF" stroke="none">
<path d="M453 623 c-7 -2 -13 -12 -13 -21 0 -12 3 -13 12 -4 19 19 49 14 55
-8 3 -11 9 -20 14 -20 5 0 9 -4 9 -10 0 -6 -27 -10 -60 -10 -55 0 -79 12 -47
23 6 2 9 8 5 12 -14 15 -39 -5 -36 -27 3 -22 8 -23 78 -23 65 0 75 2 78 18 2
11 -8 32 -24 48 -27 28 -44 33 -71 22z"/>
<path d="M566 581 c-3 -5 1 -11 9 -15 8 -3 15 -12 15 -21 0 -8 5 -15 10 -15 6
0 10 -5 10 -11 0 -7 -23 -10 -65 -7 -48 2 -65 0 -65 -10 0 -10 18 -12 73 -10
63 3 72 5 75 23 1 11 -9 32 -23 48 -28 30 -31 31 -39 18z"/>
<path d="M131 556 c-17 -20 -10 -67 12 -80 24 -15 51 4 55 38 6 48 -39 75 -67
42z m44 -36 c0 -13 -6 -25 -12 -27 -16 -6 -27 21 -19 43 9 23 31 11 31 -16z"/>
<path d="M43 438 c-14 -18 -15 -138 -2 -155 6 -7 23 -13 38 -13 l26 0 -4 -81
c-2 -58 0 -80 8 -75 6 4 11 34 11 66 0 63 8 77 32 57 13 -10 14 -25 8 -80 -9
-77 -24 -102 -44 -74 -16 21 -30 22 -22 2 4 -11 -8 -22 -39 -37 -25 -12 -45
-26 -45 -30 0 -12 7 -10 50 12 22 11 56 20 76 20 20 0 51 8 68 19 17 10 48 22
69 25 23 4 54 21 76 42 21 19 45 34 53 34 15 0 38 19 38 33 0 4 -6 5 -12 0 -7
-4 -27 -13 -45 -19 l-32 -11 -7 54 c-3 30 -4 76 0 103 4 29 2 51 -4 55 -5 3
-10 15 -10 26 0 10 -4 19 -10 19 -5 0 -10 -9 -10 -20 0 -30 -39 -25 -86 10
-29 22 -50 30 -81 30 -24 0 -43 -4 -43 -10 0 -5 4 -10 9 -10 5 0 7 -9 4 -20
-3 -13 -14 -20 -29 -20 -30 0 -42 20 -21 35 10 7 17 15 17 19 0 11 -27 6 -37
-6z m173 -38 c27 -20 51 -30 77 -30 20 0 37 -4 37 -10 0 -19 -86 -11 -113 10
-30 24 -56 28 -38 6 14 -17 5 -41 -28 -70 l-21 -19 0 65 c0 35 3 68 7 71 13
14 41 6 79 -23z m-106 -71 c0 -38 -1 -40 -27 -37 -47 5 -45 78 2 78 23 0 25
-4 25 -41z m166 1 l41 0 6 -91 c7 -88 0 -119 -24 -119 -4 0 -9 33 -11 73 -3
72 -3 72 -40 92 -28 15 -38 26 -38 45 0 19 3 21 12 12 7 -7 31 -12 54 -12z
m-8 -149 c-2 -51 -6 -66 -18 -66 -11 0 -16 14 -18 56 l-3 57 -46 17 -46 18 21
18 c22 17 24 17 68 -8 l45 -25 -3 -67z m-56 -22 c3 -54 1 -62 -20 -75 l-23
-15 6 53 c4 29 8 63 11 76 8 42 22 22 26 -39z"/>
<path d="M70 330 c0 -11 5 -20 10 -20 6 0 10 9 10 20 0 11 -4 20 -10 20 -5 0
-10 -9 -10 -20z"/>
<path d="M575 333 c-46 -25 -125 -94 -125 -110 0 -7 29 11 65 42 36 30 76 57
90 61 14 3 25 10 25 15 0 13 -21 10 -55 -8z"/>
</g>
</svg>
