<?xml version="1.0" standalone="no"?>
<!DOCTYPE svg PUBLIC "-//W3C//DTD SVG 20010904//EN"
 "http://www.w3.org/TR/2001/REC-SVG-20010904/DTD/svg10.dtd">
<svg version="1.0" xmlns="http://www.w3.org/2000/svg"
 width="64.000000pt" height="64.000000pt" viewBox="0 0 64.000000 64.000000"
 preserveAspectRatio="xMidYMid meet">

<g transform="translate(0.000000,64.000000) scale(0.100000,-0.100000)"
fill="#0045FF" stroke="none">
<path d="M301 626 c-6 -8 -17 -33 -24 -57 l-13 -44 -119 -3 c-80 -2 -122 -7
-127 -15 -13 -21 -10 -441 4 -455 8 -8 54 -12 143 -12 102 0 148 -4 213 -22
76 -19 84 -20 99 -6 18 18 142 466 143 514 0 38 -4 40 -171 83 -133 36 -133
36 -148 17z m154 -41 c127 -33 145 -41 145 -62 -1 -29 -126 -483 -136 -493 -6
-6 -24 -6 -48 1 -35 10 -37 12 -22 28 12 13 16 39 16 105 0 48 5 97 11 109 9
16 9 22 0 25 -14 5 -15 172 -1 172 6 0 15 -20 22 -45 14 -54 28 -59 28 -10 0
38 13 44 42 18 16 -14 18 -14 18 0 0 8 3 23 7 32 5 14 2 16 -15 11 -35 -11
-44 2 -25 34 25 43 8 49 -32 10 -33 -32 -35 -32 -59 -16 -14 9 -45 16 -71 16
l-47 0 7 33 c11 49 24 69 43 63 9 -2 62 -16 117 -31z m-71 -101 c10 -27 7
-384 -4 -405 -10 -18 -23 -19 -175 -19 l-165 0 0 220 0 220 169 0 c145 0 170
-2 175 -16z"/>
<path d="M420 340 c0 -5 5 -10 10 -10 6 0 10 5 10 10 0 6 -4 10 -10 10 -5 0
-10 -4 -10 -10z"/>
<path d="M460 330 c0 -5 4 -10 9 -10 6 0 13 5 16 10 3 6 -1 10 -9 10 -9 0 -16
-4 -16 -10z"/>
<path d="M505 320 c-3 -5 -2 -10 4 -10 5 0 13 5 16 10 3 6 2 10 -4 10 -5 0
-13 -4 -16 -10z"/>
<path d="M470 283 c0 -6 -3 -18 -6 -27 -3 -9 -1 -16 5 -16 17 0 25 30 12 43
-8 8 -11 8 -11 0z"/>
<path d="M445 188 c-13 -41 -33 -133 -29 -137 9 -9 21 15 33 64 7 28 14 58 17
68 6 19 -14 24 -21 5z"/>
<path d="M160 442 c-68 -34 -97 -110 -65 -172 49 -94 181 -94 230 0 34 65 8
137 -60 170 -50 24 -61 25 -105 2z m11 -34 c-5 -14 -18 -24 -32 -26 -24 -3
-24 -3 4 23 35 31 39 31 28 3z m53 6 c10 -26 7 -34 -14 -34 -11 0 -20 4 -20 9
0 17 12 41 20 41 4 0 11 -7 14 -16z m62 -15 c19 -21 19 -21 -6 -18 -14 2 -26
12 -28 22 -5 23 11 22 34 -4z m-126 -74 c0 -21 -5 -25 -30 -25 -25 0 -30 4
-30 25 0 21 5 25 30 25 25 0 30 -4 30 -25z m80 0 c0 -21 -5 -25 -30 -25 -25 0
-30 4 -30 25 0 21 5 25 30 25 25 0 30 -4 30 -25z m80 0 c0 -21 -5 -25 -29 -25
-24 0 -28 4 -28 25 0 21 4 25 28 25 24 0 29 -4 29 -25z m-151 -67 c5 -13 7
-25 5 -27 -6 -6 -54 29 -54 39 0 20 41 10 49 -12z m61 5 c0 -10 -5 -25 -10
-33 -9 -13 -11 -13 -20 0 -17 25 -12 50 10 50 12 0 20 -7 20 -17z m70 9 c0
-13 -39 -46 -46 -39 -12 12 8 47 27 47 10 0 19 -4 19 -8z"/>
<path d="M100 120 c0 -6 43 -10 110 -10 67 0 110 4 110 10 0 6 -43 10 -110 10
-67 0 -110 -4 -110 -10z"/>
</g>
</svg>
