<?xml version="1.0" standalone="no"?>
<!DOCTYPE svg PUBLIC "-//W3C//DTD SVG 20010904//EN"
 "http://www.w3.org/TR/2001/REC-SVG-20010904/DTD/svg10.dtd">
<svg version="1.0" xmlns="http://www.w3.org/2000/svg"
 width="64.000000pt" height="64.000000pt" viewBox="0 0 64.000000 64.000000"
 preserveAspectRatio="xMidYMid meet">

<g transform="translate(0.000000,64.000000) scale(0.100000,-0.100000)"
fill="#0045FF" stroke="none">
<path d="M457 622 c-26 -28 -21 -69 9 -89 24 -15 29 -15 53 -2 16 9 27 25 29
43 7 55 -56 87 -91 48z m71 -33 c4 -31 -20 -53 -46 -44 -44 13 -30 78 16 73
21 -2 28 -9 30 -29z"/>
<path d="M360 554 c-19 -8 -49 -29 -67 -46 l-32 -31 -41 18 c-28 13 -40 24
-40 39 0 15 -3 17 -11 9 -6 -6 -18 -9 -25 -6 -8 3 -14 0 -14 -6 0 -6 5 -11 11
-11 6 0 9 -7 6 -15 -4 -8 -2 -17 3 -20 4 -3 10 0 12 6 2 7 16 5 41 -7 31 -15
37 -22 32 -39 -20 -62 -18 -71 25 -108 l43 -36 -44 -54 -44 -54 -71 38 c-65
36 -73 38 -85 23 -11 -14 -10 -19 10 -35 52 -42 372 -211 409 -216 52 -7 114
13 110 35 -3 14 -14 16 -55 14 -28 -1 -63 2 -78 8 -20 8 -26 7 -23 -2 6 -17
57 -28 103 -22 30 4 36 3 25 -5 -26 -18 -93 -12 -147 14 -58 26 -69 41 -25 31
l27 -6 -26 22 c-44 38 -43 74 2 128 21 25 39 50 39 55 0 5 -25 35 -56 66 -34
35 -52 59 -45 63 6 4 26 -8 43 -27 45 -47 116 -86 156 -85 20 1 31 5 27 12 -3
6 -8 19 -11 28 -3 10 -26 29 -50 43 -28 16 -44 33 -44 45 0 10 -4 22 -10 25
-6 4 -10 -6 -10 -24 0 -20 8 -35 27 -49 41 -30 20 -46 -28 -22 l-39 20 0 81
c0 71 2 80 18 77 9 -2 18 -13 20 -26 2 -12 8 -22 14 -22 16 0 1 63 -19 78 -20
15 -20 15 -63 -4z m14 -46 c-4 -18 -15 -42 -25 -52 -15 -17 -22 -18 -44 -8
-14 6 -25 16 -25 21 0 10 79 71 92 71 4 0 5 -15 2 -32z m-64 -90 c0 -5 -12 -5
-27 -2 -34 8 -37 10 -29 23 8 12 56 -6 56 -21z m60 12 c0 -5 -5 -10 -11 -10
-5 0 -7 5 -4 10 3 6 8 10 11 10 2 0 4 -4 4 -10z m-13 -92 c29 -29 53 -56 53
-60 0 -4 -14 -23 -31 -43 -37 -42 -64 -34 -35 10 20 31 17 37 -55 92 -27 20
-49 45 -49 54 0 31 59 4 117 -53z m167 -19 c-8 -14 -34 -11 -34 4 0 8 3 17 7
20 9 9 34 -13 27 -24z m-184 -49 c0 -14 -39 -42 -49 -35 -15 9 20 54 36 48 7
-3 13 -8 13 -13z m-126 -101 c21 -19 -9 -7 -75 28 -38 21 -69 41 -69 46 0 8
124 -55 144 -74z m76 43 c0 -5 -9 -17 -19 -26 -22 -20 -40 -4 -21 19 13 16 40
20 40 7z m34 -18 c9 -3 13 -10 10 -15 -3 -6 0 -17 7 -25 18 -22 4 -28 -31 -14
-34 14 -34 14 -20 41 12 21 12 21 34 13z m-19 -74 c28 -16 44 -30 36 -30 -15
0 -101 47 -101 55 0 10 17 4 65 -25z"/>
</g>
</svg>
