<?xml version="1.0" standalone="no"?>
<!DOCTYPE svg PUBLIC "-//W3C//DTD SVG 20010904//EN"
 "http://www.w3.org/TR/2001/REC-SVG-20010904/DTD/svg10.dtd">
<svg version="1.0" xmlns="http://www.w3.org/2000/svg"
 width="64.000000pt" height="64.000000pt" viewBox="0 0 64.000000 64.000000"
 preserveAspectRatio="xMidYMid meet">

<g transform="translate(0.000000,64.000000) scale(0.100000,-0.100000)"
fill="#0045FF" stroke="none">
<path d="M136 471 c-21 -4 -38 -20 -58 -51 -38 -62 -58 -105 -58 -130 0 -11
-4 -20 -10 -20 -5 0 -10 -11 -10 -25 0 -19 5 -25 21 -25 11 0 32 -13 46 -30
29 -35 60 -38 96 -10 22 18 40 20 162 20 122 0 140 -2 162 -20 34 -27 65 -25
93 5 13 14 31 25 41 25 15 0 17 9 15 59 -1 32 -7 66 -14 74 -8 10 -40 17 -90
22 l-77 7 -30 46 c-21 33 -39 49 -60 53 -39 8 -191 9 -229 0z m279 -73 l30
-46 82 -7 83 -7 0 -32 c0 -44 -8 -49 -38 -26 -13 11 -34 20 -45 20 -26 0 -67
-38 -67 -62 0 -17 -11 -18 -135 -18 -120 0 -135 2 -135 17 0 26 -41 63 -69 63
-14 0 -38 -12 -53 -27 l-28 -27 0 33 c0 29 40 117 73 159 7 9 44 12 141 10
l131 -3 30 -47z m-261 -134 c31 -30 9 -84 -34 -84 -24 0 -50 26 -50 50 0 24
26 50 50 50 10 0 26 -7 34 -16z m410 0 c31 -30 9 -84 -34 -84 -24 0 -50 26
-50 50 0 24 26 50 50 50 10 0 26 -7 34 -16z"/>
<path d="M116 405 c-31 -47 -23 -55 54 -55 l70 0 0 40 0 40 -54 0 c-46 0 -56
-4 -70 -25z"/>
<path d="M260 390 l0 -40 75 0 c81 0 86 4 58 51 -16 27 -22 29 -75 29 l-58 0
0 -40z"/>
<path d="M260 310 c0 -11 5 -20 10 -20 6 0 10 9 10 20 0 11 -4 20 -10 20 -5 0
-10 -9 -10 -20z"/>
<path d="M94 246 c-10 -26 4 -48 28 -44 17 2 23 10 23 28 0 18 -6 26 -23 28
-13 2 -25 -3 -28 -12z"/>
<path d="M504 246 c-10 -26 4 -48 28 -44 17 2 23 10 23 28 0 18 -6 26 -23 28
-13 2 -25 -3 -28 -12z"/>
</g>
</svg>
